<?xml version="1.0" encoding="UTF-8"?>
<svg xmlns="http://www.w3.org/2000/svg" viewBox="0 0 860 540" width="860" height="540">
  <title>Mare Nostrum — Akdeniz Ticaret Haritası</title>
  <defs>
    <linearGradient id="seaGrad" x1="0" y1="0" x2="0" y2="1">
      <stop offset="0%" stop-color="#0a1628"/>
      <stop offset="50%" stop-color="#0f2240"/>
      <stop offset="100%" stop-color="#162d50"/>
    </linearGradient>
    <pattern id="waves" width="60" height="20" patternUnits="userSpaceOnUse" patternTransform="rotate(-5)">
      <path d="M0 10 Q15 5, 30 10 Q45 15, 60 10" fill="none" stroke="#1a3050" stroke-width="0.5" opacity="0.4"/>
    </pattern>
    <radialGradient id="regBati" cx="130" cy="200" r="200" gradientUnits="userSpaceOnUse">
      <stop offset="0%" stop-color="#1e3a5f" stop-opacity="0.38"/>
      <stop offset="100%" stop-color="#1e3a5f" stop-opacity="0"/>
    </radialGradient>
    <radialGradient id="regOrta" cx="400" cy="240" r="220" gradientUnits="userSpaceOnUse">
      <stop offset="0%" stop-color="#2d1f4e" stop-opacity="0.32"/>
      <stop offset="100%" stop-color="#2d1f4e" stop-opacity="0"/>
    </radialGradient>
    <radialGradient id="regDogu" cx="680" cy="280" r="220" gradientUnits="userSpaceOnUse">
      <stop offset="0%" stop-color="#4a1c1c" stop-opacity="0.32"/>
      <stop offset="100%" stop-color="#4a1c1c" stop-opacity="0"/>
    </radialGradient>
    <radialGradient id="regGuney" cx="400" cy="420" r="240" gradientUnits="userSpaceOnUse">
      <stop offset="0%" stop-color="#3d3516" stop-opacity="0.32"/>
      <stop offset="100%" stop-color="#3d3516" stop-opacity="0"/>
    </radialGradient>
    <filter id="chokeGlow" x="-50%" y="-50%" width="200%" height="200%">
      <feGaussianBlur stdDeviation="5" result="blur"/>
      <feMerge><feMergeNode in="blur"/><feMergeNode in="SourceGraphic"/></feMerge>
    </filter>
    <filter id="portGlow" x="-60%" y="-60%" width="220%" height="220%">
      <feGaussianBlur stdDeviation="3" result="blur"/>
      <feMerge><feMergeNode in="blur"/><feMergeNode in="SourceGraphic"/></feMerge>
    </filter>
    <marker id="arrowEnd" viewBox="0 0 10 10" refX="5" refY="5" markerWidth="4" markerHeight="4" orient="auto">
      <path d="M 0 0 L 10 5 L 0 10 z" fill="#c8a96e" opacity="0.6"/>
    </marker>
  </defs>
  <rect width="860" height="540" fill="url(#seaGrad)"/>
  <rect width="860" height="540" fill="url(#waves)"/>
  <rect width="860" height="540" fill="url(#regBati)"/>
  <rect width="860" height="540" fill="url(#regOrta)"/>
  <rect width="860" height="540" fill="url(#regDogu)"/>
  <rect width="860" height="540" fill="url(#regGuney)"/>
  <path d="M 40,131 Q 55,138 71,145 Q 99,148 126,151 Q 129,140 132,128 Q 148,125 163,122 Q 184,118 204,113 Q 215,109 225,104 Q 230,97 235,89 Q 246,91 256,92 Q 266,100 276,107 Q 287,128 297,148 Q 312,168 327,188 Q 343,193 358,197 Q 369,207 379,217 Q 380,241 381,264" fill="none" stroke="#2a4a3a" stroke-width="1.5" opacity="0.55" stroke-dasharray="3 2"/>
  <path d="M 381,264 Q 390,257 399,250 Q 404,241 409,231 Q 420,217 430,203 Q 420,192 409,180 Q 394,163 379,145 Q 364,131 348,116 Q 333,101 317,86 Q 328,71 338,55" fill="none" stroke="#2a4a3a" stroke-width="1.5" opacity="0.55" stroke-dasharray="3 2"/>
  <path d="M 432,141 Q 447,158 461,174 Q 464,189 467,203 Q 469,217 471,231 Q 482,245 492,258 Q 502,272 512,286 Q 517,293 522,299 Q 528,306 533,313" fill="none" stroke="#2a4a3a" stroke-width="1" opacity="0.45" stroke-dasharray="2 3"/>
  <path d="M 553,272 Q 569,265 584,258 Q 589,245 594,231 Q 599,224 604,217 Q 610,210 615,203 Q 636,196 655,188 Q 666,181 676,174 Q 697,174 717,174" fill="none" stroke="#2a4a3a" stroke-width="1" opacity="0.45" stroke-dasharray="2 3"/>
  <path d="M 635,313 Q 656,320 676,326 Q 697,320 717,313 Q 738,313 758,313 Q 774,320 789,326" fill="none" stroke="#2a4a3a" stroke-width="1" opacity="0.4" stroke-dasharray="2 3"/>
  <path d="M 789,326 Q 789,339 789,352 Q 794,359 799,365 Q 789,385 779,404 Q 774,411 769,417 Q 764,430 758,442 Q 743,446 728,450 Q 702,453 675,455" fill="none" stroke="#2a4a3a" stroke-width="1" opacity="0.45" stroke-dasharray="2 3"/>
  <path d="M 675,455 Q 625,449 574,442 Q 523,436 471,430 Q 400,424 331,407 Q 309,386 286,365 Q 286,332 286,299 Q 276,297 266,294 Q 256,297 245,299 Q 240,306 235,313 Q 210,309 184,305 Q 158,306 132,305 Q 117,309 102,313 Q 82,326 61,339 Q 51,346 40,352" fill="none" stroke="#3a3520" stroke-width="1.5" opacity="0.55" stroke-dasharray="3 2"/>
  <path d="M 317,264 Q 322,268 327,272 Q 333,279 338,286 Q 343,293 348,299 Q 358,299 368,299 Q 372,293 375,286 Q 378,279 381,272 Q 375,268 368,264 Z" fill="#131f2e" stroke="#2a4a3a" stroke-width="1" opacity="0.55"/>
  <path d="M 235,188 Q 233,196 231,203 Q 233,217 235,231 Q 240,238 245,245 Q 251,245 256,245 Q 259,231 262,217 Q 261,210 260,203 Q 258,196 256,188 Z" fill="#131f2e" stroke="#2a4a3a" stroke-width="0.8" opacity="0.45"/>
  <path d="M 245,131 Q 243,138 241,145 Q 243,153 245,160 Q 247,167 249,174 Q 253,174 256,174 Q 257,167 258,160 Q 257,153 256,145 Q 253,138 249,131 Z" fill="#131f2e" stroke="#2a4a3a" stroke-width="0.8" opacity="0.45"/>
  <path d="M 543,339 Q 548,343 553,347 Q 564,350 574,352 Q 584,350 594,347 Q 597,343 600,339 Q 592,339 584,339 Q 569,338 553,337 Z" fill="#131f2e" stroke="#2a4a3a" stroke-width="0.8" opacity="0.5"/>
  <path d="M 728,352 Q 733,358 738,363 Q 748,361 758,358 Q 764,351 769,344 Q 764,339 758,334 Q 753,337 748,339 Q 743,342 738,344 Z" fill="#131f2e" stroke="#2a4a3a" stroke-width="0.8" opacity="0.5"/>
  <text x="110" y="140" font-family="Georgia, serif" font-size="13" fill="#4a7a9a" opacity="0.45" font-style="italic" letter-spacing="4">BATI</text>
  <text x="96" y="155" font-family="Georgia, serif" font-size="9" fill="#4a7a9a" opacity="0.35" font-style="italic" letter-spacing="2">Frenk Denizi</text>
  <text x="370" y="175" font-family="Georgia, serif" font-size="13" fill="#6a4a8a" opacity="0.45" font-style="italic" letter-spacing="4">ORTA</text>
  <text x="356" y="190" font-family="Georgia, serif" font-size="9" fill="#6a4a8a" opacity="0.35" font-style="italic" letter-spacing="2">Ara Deniz</text>
  <text x="640" y="148" font-family="Georgia, serif" font-size="13" fill="#8a4a4a" opacity="0.45" font-style="italic" letter-spacing="4">DOĞU</text>
  <text x="626" y="163" font-family="Georgia, serif" font-size="9" fill="#8a4a4a" opacity="0.35" font-style="italic" letter-spacing="2">Şark Denizi</text>
  <text x="340" y="465" font-family="Georgia, serif" font-size="13" fill="#8a7a3a" opacity="0.45" font-style="italic" letter-spacing="4">GÜNEY</text>
  <text x="326" y="480" font-family="Georgia, serif" font-size="9" fill="#8a7a3a" opacity="0.35" font-style="italic" letter-spacing="2">Berber Kıyısı</text>
  <!-- Trade flow arrows -->
  <path d="M 700,430 Q 620,380 550,330 Q 460,270 370,200 Q 300,160 200,120" fill="none" stroke="#f1c40f" stroke-width="1" opacity="0.14" stroke-dasharray="3 6" marker-end="url(#arrowEnd)"/>
  <text x="400" y="212" font-family="Georgia, serif" font-size="7" fill="#f1c40f" opacity="0.3" font-style="italic" transform="rotate(-15 400 212)">Lüks akışı →</text>
  <path d="M 120,190 Q 200,230 300,280 Q 430,310 560,330 Q 620,310 670,250" fill="none" stroke="#e74c3c" stroke-width="1" opacity="0.11" stroke-dasharray="3 6" marker-end="url(#arrowEnd)"/>
  <text x="420" y="322" font-family="Georgia, serif" font-size="7" fill="#e74c3c" opacity="0.25" font-style="italic" transform="rotate(5 420 322)">← Savaş akışı</text>
  <!-- Routes -->
  <path d="M 105,177 L 171,122" fill="none" stroke="#86efac" stroke-width="2.5" stroke-dasharray="6 6" opacity="0.58"/>
  <path d="M 105,177 L 269,304" fill="none" stroke="#fda4af" stroke-width="2.5"  opacity="0.58"/>
  <path d="M 105,177 L 123,306" fill="none" stroke="#fda4af" stroke-width="2.5"  opacity="0.58"/>
  <path d="M 171,122 L 244,89" fill="none" stroke="#7dd3fc" stroke-width="2.5"  opacity="0.58"/>
  <path d="M 244,89 L 314,57" fill="none" stroke="#86efac" stroke-width="2.5" stroke-dasharray="6 6" opacity="0.58"/>
  <path d="M 244,89 L 335,269" fill="none" stroke="#fda4af" stroke-width="2.5"  opacity="0.58"/>
  <path d="M 314,57 L 432,141" fill="none" stroke="#ffcc44" stroke-width="7" opacity="0.2" filter="url(#chokeGlow)"/>
  <path d="M 314,57 L 432,141" fill="none" stroke="#7dd3fc" stroke-width="3.5"  opacity="0.85"/>
  <path d="M 335,269 L 432,141" fill="none" stroke="#86efac" stroke-width="2.5" stroke-dasharray="6 6" opacity="0.58"/>
  <path d="M 335,269 L 358,329" fill="none" stroke="#86efac" stroke-width="2.5" stroke-dasharray="6 6" opacity="0.58"/>
  <path d="M 335,269 Q 447,335 576,343" fill="none" stroke="#fda4af" stroke-width="2.5"  opacity="0.58"/>
  <path d="M 335,269 L 269,304" fill="none" stroke="#ffcc44" stroke-width="7" opacity="0.2" filter="url(#chokeGlow)"/>
  <path d="M 335,269 L 269,304" fill="none" stroke="#7dd3fc" stroke-width="3.5"  opacity="0.85"/>
  <path d="M 358,329 L 269,304" fill="none" stroke="#ffcc44" stroke-width="7" opacity="0.2" filter="url(#chokeGlow)"/>
  <path d="M 358,329 L 269,304" fill="none" stroke="#7dd3fc" stroke-width="3.5"  opacity="0.85"/>
  <path d="M 576,343 L 655,188" fill="none" stroke="#ffcc44" stroke-width="7" opacity="0.2" filter="url(#chokeGlow)"/>
  <path d="M 576,343 L 655,188" fill="none" stroke="#7dd3fc" stroke-width="3.5"  opacity="0.85"/>
  <path d="M 314,57 Q 469,163 655,188" fill="none" stroke="#fda4af" stroke-width="2.5"  opacity="0.58"/>
  <path d="M 432,141 L 655,188" fill="none" stroke="#fda4af" stroke-width="2.5"  opacity="0.58"/>
  <path d="M 432,141 L 576,343" fill="none" stroke="#7dd3fc" stroke-width="2.5"  opacity="0.58"/>
  <path d="M 576,343 L 757,349" fill="none" stroke="#7dd3fc" stroke-width="2.5"  opacity="0.58"/>
  <path d="M 576,343 L 675,450" fill="none" stroke="#fda4af" stroke-width="2.5"  opacity="0.58"/>
  <path d="M 757,349 L 789,381" fill="none" stroke="#86efac" stroke-width="2.5" stroke-dasharray="6 6" opacity="0.58"/>
  <path d="M 757,349 L 675,450" fill="none" stroke="#7dd3fc" stroke-width="2.5"  opacity="0.58"/>
  <path d="M 655,188 Q 699,301 789,381" fill="none" stroke="#c4b5fd" stroke-width="2.5" stroke-dasharray="12 6" opacity="0.58"/>
  <path d="M 789,381 L 675,450" fill="none" stroke="#86efac" stroke-width="2.5" stroke-dasharray="6 6" opacity="0.58"/>
  <path d="M 675,450 Q 508,387 331,407" fill="none" stroke="#fda4af" stroke-width="2.5"  opacity="0.58"/>
  <path d="M 331,407 L 269,304" fill="none" stroke="#7dd3fc" stroke-width="2.5"  opacity="0.58"/>
  <path d="M 331,407 L 123,306" fill="none" stroke="#fda4af" stroke-width="2.5"  opacity="0.58"/>
  <path d="M 269,304 L 123,306" fill="none" stroke="#86efac" stroke-width="2.5" stroke-dasharray="6 6" opacity="0.58"/>
  <path d="M 358,329 L 576,343" fill="none" stroke="#fda4af" stroke-width="2.5"  opacity="0.58"/>
  <path d="M 244,89 L 269,304" fill="none" stroke="#fda4af" stroke-width="2.5"  opacity="0.58"/>
  <path d="M 358,329 L 123,306" fill="none" stroke="#fda4af" stroke-width="2.5"  opacity="0.58"/>
  <!-- Chokepoint labels -->
  <g transform="translate(373,99)">
    <rect x="-33" y="-10" width="65" height="20" rx="4" fill="#ffcc44" opacity="0.15"/>
    <text text-anchor="middle" font-family="Georgia, serif" font-size="8" fill="#ffcc44" opacity="0.9" font-weight="bold" letter-spacing="1">OTRANTO</text>
  </g>
  <g transform="translate(302,286)">
    <rect x="-57" y="-10" width="114" height="20" rx="4" fill="#ffcc44" opacity="0.15"/>
    <text text-anchor="middle" font-family="Georgia, serif" font-size="8" fill="#ffcc44" opacity="0.9" font-weight="bold" letter-spacing="1">SİCİLYA BOĞAZI</text>
  </g>
  <g transform="translate(616,266)">
    <rect x="-43" y="-10" width="86" height="20" rx="4" fill="#ffcc44" opacity="0.15"/>
    <text text-anchor="middle" font-family="Georgia, serif" font-size="8" fill="#ffcc44" opacity="0.9" font-weight="bold" letter-spacing="1">EGE GEÇİDİ</text>
  </g>
  <!-- Ports -->
  <g class="port">
    <circle cx="105" cy="177" r="5" fill="#e74c3c" opacity="0.4"/>
    <circle cx="105" cy="177" r="10" fill="#0f172a" stroke="#e74c3c" stroke-width="2.5" filter="url(#portGlow)"/>
    <text x="105" y="151" text-anchor="middle" font-family="Georgia, serif" font-size="8" fill="#e74c3c" opacity="0.75" font-style="italic">Aragon'un Pençesi</text>
    <text x="105" y="163" text-anchor="middle" font-family="Georgia, serif" font-size="11" fill="#e2e8f0" font-weight="bold">Barselona</text>
  </g>
  <g class="port">
    <circle cx="171" cy="122" r="5" fill="#2ecc71" opacity="0.4"/>
    <circle cx="171" cy="122" r="10" fill="#0f172a" stroke="#2ecc71" stroke-width="2.5" filter="url(#portGlow)"/>
    <text x="171" y="96" text-anchor="middle" font-family="Georgia, serif" font-size="8" fill="#2ecc71" opacity="0.75" font-style="italic">Provence'ın Kapısı</text>
    <text x="171" y="108" text-anchor="middle" font-family="Georgia, serif" font-size="11" fill="#e2e8f0" font-weight="bold">Marsilya</text>
  </g>
  <g class="port">
    <circle cx="244" cy="89" r="5" fill="#f1c40f" opacity="0.4"/>
    <circle cx="244" cy="89" r="10" fill="#0f172a" stroke="#f1c40f" stroke-width="2.5" filter="url(#portGlow)"/>
    <text x="244" y="63" text-anchor="middle" font-family="Georgia, serif" font-size="8" fill="#f1c40f" opacity="0.75" font-style="italic">La Superba</text>
    <text x="244" y="75" text-anchor="middle" font-family="Georgia, serif" font-size="11" fill="#e2e8f0" font-weight="bold">Cenova</text>
  </g>
  <g class="port">
    <circle cx="314" cy="57" r="24" fill="none" stroke="#f1c40f" stroke-width="1" opacity="0.12"/>
    <circle cx="314" cy="57" r="20" fill="none" stroke="#f1c40f" stroke-width="1" opacity="0.18"/>
    <circle cx="314" cy="57" r="7" fill="#f1c40f" opacity="0.4"/>
    <circle cx="314" cy="57" r="14" fill="#0f172a" stroke="#f1c40f" stroke-width="3" filter="url(#portGlow)"/>
    <text x="314" y="27" text-anchor="middle" font-family="Georgia, serif" font-size="8" fill="#f1c40f" opacity="0.75" font-style="italic">La Serenissima</text>
    <text x="314" y="39" text-anchor="middle" font-family="Georgia, serif" font-size="12" fill="#e2e8f0" font-weight="bold">Venedik</text>
  </g>
  <g class="port">
    <circle cx="335" cy="269" r="5" fill="#2ecc71" opacity="0.4"/>
    <circle cx="335" cy="269" r="10" fill="#0f172a" stroke="#2ecc71" stroke-width="2.5" filter="url(#portGlow)"/>
    <text x="335" y="243" text-anchor="middle" font-family="Georgia, serif" font-size="8" fill="#2ecc71" opacity="0.75" font-style="italic">Üç Dinin Kavşağı</text>
    <text x="335" y="255" text-anchor="middle" font-family="Georgia, serif" font-size="11" fill="#e2e8f0" font-weight="bold">Palermo</text>
  </g>
  <g class="port">
    <circle cx="432" cy="141" r="5" fill="#2ecc71" opacity="0.4"/>
    <circle cx="432" cy="141" r="10" fill="#0f172a" stroke="#2ecc71" stroke-width="2.5" filter="url(#portGlow)"/>
    <text x="432" y="115" text-anchor="middle" font-family="Georgia, serif" font-size="8" fill="#2ecc71" opacity="0.75" font-style="italic">Küçük Ama Kurnaz</text>
    <text x="432" y="127" text-anchor="middle" font-family="Georgia, serif" font-size="11" fill="#e2e8f0" font-weight="bold">Ragusa</text>
  </g>
  <g class="port">
    <circle cx="655" cy="188" r="24" fill="none" stroke="#f1c40f" stroke-width="1" opacity="0.12"/>
    <circle cx="655" cy="188" r="20" fill="none" stroke="#f1c40f" stroke-width="1" opacity="0.18"/>
    <circle cx="655" cy="188" r="7" fill="#f1c40f" opacity="0.4"/>
    <circle cx="655" cy="188" r="14" fill="#0f172a" stroke="#f1c40f" stroke-width="3" filter="url(#portGlow)"/>
    <text x="655" y="158" text-anchor="middle" font-family="Georgia, serif" font-size="8" fill="#f1c40f" opacity="0.75" font-style="italic">Dünyanın Eşiği</text>
    <text x="655" y="170" text-anchor="middle" font-family="Georgia, serif" font-size="12" fill="#e2e8f0" font-weight="bold">İstanbul</text>
  </g>
  <g class="port">
    <circle cx="576" cy="343" r="5" fill="#2ecc71" opacity="0.4"/>
    <circle cx="576" cy="343" r="10" fill="#0f172a" stroke="#2ecc71" stroke-width="2.5" filter="url(#portGlow)"/>
    <text x="576" y="317" text-anchor="middle" font-family="Georgia, serif" font-size="8" fill="#2ecc71" opacity="0.75" font-style="italic">Ortadaki Ada</text>
    <text x="576" y="329" text-anchor="middle" font-family="Georgia, serif" font-size="11" fill="#e2e8f0" font-weight="bold">Girit</text>
  </g>
  <g class="port">
    <circle cx="757" cy="349" r="5" fill="#2ecc71" opacity="0.4"/>
    <circle cx="757" cy="349" r="10" fill="#0f172a" stroke="#2ecc71" stroke-width="2.5" filter="url(#portGlow)"/>
    <text x="757" y="323" text-anchor="middle" font-family="Georgia, serif" font-size="8" fill="#2ecc71" opacity="0.75" font-style="italic">Haçlı Mirası</text>
    <text x="757" y="335" text-anchor="middle" font-family="Georgia, serif" font-size="11" fill="#e2e8f0" font-weight="bold">Kıbrıs</text>
  </g>
  <g class="port">
    <circle cx="789" cy="381" r="5" fill="#f1c40f" opacity="0.4"/>
    <circle cx="789" cy="381" r="10" fill="#0f172a" stroke="#f1c40f" stroke-width="2.5" filter="url(#portGlow)"/>
    <text x="789" y="355" text-anchor="middle" font-family="Georgia, serif" font-size="8" fill="#f1c40f" opacity="0.75" font-style="italic">Levant'ın Vitrini</text>
    <text x="789" y="367" text-anchor="middle" font-family="Georgia, serif" font-size="11" fill="#e2e8f0" font-weight="bold">Beyrut</text>
  </g>
  <g class="port">
    <circle cx="675" cy="450" r="24" fill="none" stroke="#f1c40f" stroke-width="1" opacity="0.12"/>
    <circle cx="675" cy="450" r="20" fill="none" stroke="#f1c40f" stroke-width="1" opacity="0.18"/>
    <circle cx="675" cy="450" r="7" fill="#f1c40f" opacity="0.4"/>
    <circle cx="675" cy="450" r="14" fill="#0f172a" stroke="#f1c40f" stroke-width="3" filter="url(#portGlow)"/>
    <text x="675" y="420" text-anchor="middle" font-family="Georgia, serif" font-size="8" fill="#f1c40f" opacity="0.75" font-style="italic">Baharat Tahtı</text>
    <text x="675" y="432" text-anchor="middle" font-family="Georgia, serif" font-size="12" fill="#e2e8f0" font-weight="bold">İskenderiye</text>
  </g>
  <g class="port">
    <circle cx="331" cy="407" r="5" fill="#f1c40f" opacity="0.4"/>
    <circle cx="331" cy="407" r="10" fill="#0f172a" stroke="#f1c40f" stroke-width="2.5" filter="url(#portGlow)"/>
    <text x="331" y="381" text-anchor="middle" font-family="Georgia, serif" font-size="8" fill="#f1c40f" opacity="0.75" font-style="italic">Çöl Kapısı</text>
    <text x="331" y="393" text-anchor="middle" font-family="Georgia, serif" font-size="11" fill="#e2e8f0" font-weight="bold">Trablus</text>
  </g>
  <g class="port">
    <circle cx="269" cy="304" r="5" fill="#2ecc71" opacity="0.4"/>
    <circle cx="269" cy="304" r="10" fill="#0f172a" stroke="#2ecc71" stroke-width="2.5" filter="url(#portGlow)"/>
    <text x="269" y="278" text-anchor="middle" font-family="Georgia, serif" font-size="8" fill="#2ecc71" opacity="0.75" font-style="italic">Afrika'nın Roma'sı</text>
    <text x="269" y="290" text-anchor="middle" font-family="Georgia, serif" font-size="11" fill="#e2e8f0" font-weight="bold">Tunus</text>
  </g>
  <g class="port">
    <circle cx="123" cy="306" r="5" fill="#e74c3c" opacity="0.4"/>
    <circle cx="123" cy="306" r="10" fill="#0f172a" stroke="#e74c3c" stroke-width="2.5" filter="url(#portGlow)"/>
    <text x="123" y="280" text-anchor="middle" font-family="Georgia, serif" font-size="8" fill="#e74c3c" opacity="0.75" font-style="italic">Korsanlar Yuvası</text>
    <text x="123" y="292" text-anchor="middle" font-family="Georgia, serif" font-size="11" fill="#e2e8f0" font-weight="bold">Cezayir</text>
  </g>
  <g class="port">
    <circle cx="358" cy="329" r="5" fill="#e74c3c" opacity="0.4"/>
    <circle cx="358" cy="329" r="10" fill="#0f172a" stroke="#e74c3c" stroke-width="2.5" filter="url(#portGlow)"/>
    <text x="358" y="303" text-anchor="middle" font-family="Georgia, serif" font-size="8" fill="#e74c3c" opacity="0.75" font-style="italic">Kalkan ve Kılıç</text>
    <text x="358" y="315" text-anchor="middle" font-family="Georgia, serif" font-size="11" fill="#e2e8f0" font-weight="bold">Malta</text>
  </g>
  <!-- Route legend -->
  <g transform="translate(16,12)">
    <rect x="0" y="0" width="196" height="128" rx="6" fill="#0a1628" stroke="#2a3a4a" stroke-width="1" opacity="0.92"/>
    <text x="12" y="20" font-family="Georgia, serif" font-size="12" fill="#c8a96e" font-weight="bold" letter-spacing="1">MARE NOSTRUM</text>
    <text x="12" y="33" font-family="Georgia, serif" font-size="8" fill="#8899aa" font-style="italic">Akdeniz Ticaret Haritası</text>
    <line x1="12" y1="50" x2="40" y2="50" stroke="#7dd3fc" stroke-width="2.5"/>
    <text x="46" y="54" font-family="monospace" font-size="9" fill="#7dd3fc">Tramontana (1 tur)</text>
    <line x1="12" y1="66" x2="40" y2="66" stroke="#86efac" stroke-width="2.5" stroke-dasharray="6 6"/>
    <text x="46" y="70" font-family="monospace" font-size="9" fill="#86efac">Kabotaj (2 tur)</text>
    <line x1="12" y1="82" x2="40" y2="82" stroke="#fda4af" stroke-width="2.5"/>
    <text x="46" y="86" font-family="monospace" font-size="9" fill="#fda4af">Fortuna (1 tur, riskli)</text>
    <line x1="12" y1="98" x2="40" y2="98" stroke="#c4b5fd" stroke-width="2.5" stroke-dasharray="12 6"/>
    <text x="46" y="102" font-family="monospace" font-size="9" fill="#c4b5fd">Uzun Kabotaj (3 tur)</text>
    <line x1="12" y1="114" x2="40" y2="114" stroke="#ffcc44" stroke-width="3.5"/>
    <text x="46" y="118" font-family="monospace" font-size="9" fill="#ffcc44">Darboğaz (%70–80 risk)</text>
  </g>
  <!-- Goods legend -->
  <g transform="translate(660,12)">
    <rect x="0" y="0" width="184" height="88" rx="6" fill="#0a1628" stroke="#2a3a4a" stroke-width="1" opacity="0.92"/>
    <text x="12" y="20" font-family="Georgia, serif" font-size="11" fill="#c8a96e" font-weight="bold" letter-spacing="1">MAL TÜRLERİ</text>
    <circle cx="20" cy="40" r="5" fill="#0f172a" stroke="#f1c40f" stroke-width="2"/>
    <text x="32" y="44" font-family="monospace" font-size="9" fill="#f1c40f">Lüks (ipek, baharat, cam)</text>
    <circle cx="20" cy="58" r="5" fill="#0f172a" stroke="#2ecc71" stroke-width="2"/>
    <text x="32" y="62" font-family="monospace" font-size="9" fill="#2ecc71">Yemek (buğday, zeytinyağı)</text>
    <circle cx="20" cy="76" r="5" fill="#0f172a" stroke="#e74c3c" stroke-width="2"/>
    <text x="32" y="80" font-family="monospace" font-size="9" fill="#e74c3c">Savaş (demir, silah, çelik)</text>
  </g>
  <!-- Compass Rose -->
  <g transform="translate(814,500)" opacity="0.45">
    <circle cx="0" cy="0" r="22" fill="none" stroke="#c8a96e" stroke-width="0.5"/>
    <line x1="0" y1="-20" x2="0" y2="-10" stroke="#c8a96e" stroke-width="1.5"/>
    <polygon points="0,-22 -3,-15 3,-15" fill="#c8a96e"/>
    <text x="0" y="-25" text-anchor="middle" font-family="Georgia, serif" font-size="8" fill="#c8a96e" font-weight="bold">K</text>
    <line x1="0" y1="20" x2="0" y2="10" stroke="#c8a96e" stroke-width="0.8"/>
    <text x="0" y="30" text-anchor="middle" font-family="Georgia, serif" font-size="7" fill="#c8a96e">G</text>
    <line x1="20" y1="0" x2="10" y2="0" stroke="#c8a96e" stroke-width="0.8"/>
    <text x="27" y="3" font-family="Georgia, serif" font-size="7" fill="#c8a96e">D</text>
    <line x1="-20" y1="0" x2="-10" y2="0" stroke="#c8a96e" stroke-width="0.8"/>
    <text x="-32" y="3" font-family="Georgia, serif" font-size="7" fill="#c8a96e">B</text>
    <line x1="14" y1="-14" x2="7" y2="-7" stroke="#c8a96e" stroke-width="0.4"/>
    <line x1="-14" y1="-14" x2="-7" y2="-7" stroke="#c8a96e" stroke-width="0.4"/>
    <line x1="14" y1="14" x2="7" y2="7" stroke="#c8a96e" stroke-width="0.4"/>
    <line x1="-14" y1="14" x2="-7" y2="7" stroke="#c8a96e" stroke-width="0.4"/>
  </g>
  <text x="430" y="524" text-anchor="middle" font-family="Georgia, serif" font-size="9" fill="#5a6a7a" font-style="italic">15 Liman · 29 Rota · 3 Darboğaz · 4 Bölge · 15 Mal · 11.–18. Yüzyıl Akdeniz</text>
  <rect x="4" y="4" width="852" height="532" rx="8" fill="none" stroke="#2a3a4a" stroke-width="1.5" opacity="0.6"/>
  <rect x="8" y="8" width="844" height="524" rx="6" fill="none" stroke="#1a2a3a" stroke-width="0.5" opacity="0.4"/>
</svg>