<svg xmlns="http://www.w3.org/2000/svg" viewBox="0 0 860 520" width="860" height="520">
  <defs>
    <!-- Background gradient (deep sea) -->
    <linearGradient id="seaGrad" x1="0" y1="0" x2="0" y2="1">
      <stop offset="0%" stop-color="#0a1628"/>
      <stop offset="50%" stop-color="#0f2240"/>
      <stop offset="100%" stop-color="#162d50"/>
    </linearGradient>

    <!-- Region fills -->
    <radialGradient id="regionBati" cx="130" cy="200" r="180" gradientUnits="userSpaceOnUse">
      <stop offset="0%" stop-color="#1e3a5f" stop-opacity="0.35"/>
      <stop offset="100%" stop-color="transparent"/>
    </radialGradient>
    <radialGradient id="regionOrta" cx="380" cy="230" r="200" gradientUnits="userSpaceOnUse">
      <stop offset="0%" stop-color="#2d1f4e" stop-opacity="0.30"/>
      <stop offset="100%" stop-color="transparent"/>
    </radialGradient>
    <radialGradient id="regionDogu" cx="660" cy="270" r="200" gradientUnits="userSpaceOnUse">
      <stop offset="0%" stop-color="#4a1c1c" stop-opacity="0.30"/>
      <stop offset="100%" stop-color="transparent"/>
    </radialGradient>
    <radialGradient id="regionGuney" cx="350" cy="400" r="220" gradientUnits="userSpaceOnUse">
      <stop offset="0%" stop-color="#3d3516" stop-opacity="0.30"/>
      <stop offset="100%" stop-color="transparent"/>
    </radialGradient>

    <!-- Chokepoint glow -->
    <filter id="chokeGlow">
      <feGaussianBlur stdDeviation="4" result="blur"/>
      <feMerge>
        <feMergeNode in="blur"/>
        <feMergeNode in="SourceGraphic"/>
      </feMerge>
    </filter>

    <!-- Port glow on hover -->
    <filter id="portGlow">
      <feGaussianBlur stdDeviation="3" result="blur"/>
      <feMerge>
        <feMergeNode in="blur"/>
        <feMergeNode in="SourceGraphic"/>
      </feMerge>
    </filter>

    <!-- Land texture pattern -->
    <pattern id="landPattern" width="4" height="4" patternUnits="userSpaceOnUse">
      <rect width="4" height="4" fill="#1a2a3a"/>
      <circle cx="2" cy="2" r="0.3" fill="#1e3040" opacity="0.5"/>
    </pattern>

    <!-- Compass rose marker -->
    <marker id="arrowEnd" viewBox="0 0 10 10" refX="5" refY="5" markerWidth="4" markerHeight="4" orient="auto">
      <path d="M 0 0 L 10 5 L 0 10 z" fill="#c8a96e" opacity="0.6"/>
    </marker>

    <!-- Wave pattern for sea texture -->
    <pattern id="waves" width="60" height="20" patternUnits="userSpaceOnUse" patternTransform="rotate(-5)">
      <path d="M0 10 Q15 5, 30 10 Q45 15, 60 10" fill="none" stroke="#1a3050" stroke-width="0.5" opacity="0.4"/>
    </pattern>
  </defs>

  <!-- ═══ BACKGROUND ═══ -->
  <rect width="860" height="520" fill="url(#seaGrad)"/>
  <rect width="860" height="520" fill="url(#waves)"/>

  <!-- ═══ REGION AREAS ═══ -->
  <rect width="860" height="520" fill="url(#regionBati)"/>
  <rect width="860" height="520" fill="url(#regionOrta)"/>
  <rect width="860" height="520" fill="url(#regionDogu)"/>
  <rect width="860" height="520" fill="url(#regionGuney)"/>

  <!-- ═══ SIMPLIFIED COASTLINES ═══ -->
  <!-- European coastline (north) -->
  <path d="M 0,85 Q 30,75 60,80 Q 85,82 95,65 Q 110,50 135,55 Q 160,58 180,45 Q 210,35 240,50 Q 260,55 275,48 Q 310,30 340,40 Q 370,48 400,42 Q 430,35 445,50 Q 460,60 480,55 Q 510,45 530,55 Q 560,60 580,50 Q 600,42 620,48 Q 640,52 660,40 Q 680,30 700,45 Q 720,55 750,50 Q 780,45 810,50 Q 840,55 860,48"
        fill="none" stroke="#2a4a3a" stroke-width="1.5" opacity="0.5" stroke-dasharray="3 2"/>

  <!-- North African coastline (south) -->
  <path d="M 0,470 Q 40,465 80,475 Q 120,480 160,468 Q 200,460 240,465 Q 280,470 320,462 Q 360,458 400,465 Q 440,470 480,460 Q 520,455 560,462 Q 600,468 640,458 Q 680,452 720,460 Q 760,465 800,455 Q 840,450 860,458"
        fill="none" stroke="#3a3520" stroke-width="1.5" opacity="0.5" stroke-dasharray="3 2"/>

  <!-- Italic peninsula hint -->
  <path d="M 260,30 Q 270,60 280,90 Q 290,120 295,150 Q 300,170 305,200 Q 310,220 305,240"
        fill="none" stroke="#2a4a3a" stroke-width="1" opacity="0.35" stroke-dasharray="2 3"/>

  <!-- Greek peninsula hint -->
  <path d="M 500,30 Q 510,60 515,90 Q 520,120 525,150 Q 530,170 528,200 Q 525,220 520,240"
        fill="none" stroke="#2a4a3a" stroke-width="1" opacity="0.35" stroke-dasharray="2 3"/>

  <!-- Anatolian coast hint -->
  <path d="M 620,40 Q 640,60 660,80 Q 680,100 700,120 Q 720,140 740,160 Q 760,170 780,180 Q 800,190 820,200 Q 840,210 860,215"
        fill="none" stroke="#2a4a3a" stroke-width="1" opacity="0.35" stroke-dasharray="2 3"/>

  <!-- ═══ REGION LABELS ═══ -->
  <text x="80" y="155" font-family="Georgia, serif" font-size="13" fill="#4a7a9a" opacity="0.45" font-style="italic" letter-spacing="4">BATI</text>
  <text x="56" y="170" font-family="Georgia, serif" font-size="9" fill="#4a7a9a" opacity="0.35" font-style="italic" letter-spacing="2">Frenk Denizi</text>

  <text x="330" y="150" font-family="Georgia, serif" font-size="13" fill="#6a4a8a" opacity="0.45" font-style="italic" letter-spacing="4">ORTA</text>
  <text x="320" y="165" font-family="Georgia, serif" font-size="9" fill="#6a4a8a" opacity="0.35" font-style="italic" letter-spacing="2">Ara Deniz</text>

  <text x="660" y="135" font-family="Georgia, serif" font-size="13" fill="#8a4a4a" opacity="0.45" font-style="italic" letter-spacing="4">DOGU</text>
  <text x="646" y="150" font-family="Georgia, serif" font-size="9" fill="#8a4a4a" opacity="0.35" font-style="italic" letter-spacing="2">Sark Denizi</text>

  <text x="280" y="480" font-family="Georgia, serif" font-size="13" fill="#8a7a3a" opacity="0.45" font-style="italic" letter-spacing="4">GUNEY</text>
  <text x="266" y="495" font-family="Georgia, serif" font-size="9" fill="#8a7a3a" opacity="0.35" font-style="italic" letter-spacing="2">Berber Kiyisi</text>

  <!-- ═══ ROUTES ═══ -->
  <!-- Legend: Tramontana=#7dd3fc, Kabotaj=#86efac dashed, Fortuna=#fda4af, UzunKabotaj=#c4b5fd long-dash -->

  <!-- === BATI ROUTES === -->
  <!-- 1. Barselona-Marsilya (Kabotaj) -->
  <line x1="90" y1="220" x2="130" y2="120" stroke="#86efac" stroke-width="2.5" stroke-dasharray="6 6" opacity="0.55"/>
  <!-- 2. Barselona-Tunus (Fortuna) -->
  <line x1="90" y1="220" x2="230" y2="350" stroke="#fda4af" stroke-width="2.5" opacity="0.55"/>
  <!-- 3. Barselona-Cezayir (Fortuna) -->
  <line x1="90" y1="220" x2="120" y2="400" stroke="#fda4af" stroke-width="2.5" opacity="0.55"/>
  <!-- 4. Marsilya-Cenova (Tramontana) -->
  <line x1="130" y1="120" x2="250" y2="120" stroke="#7dd3fc" stroke-width="2.5" opacity="0.55"/>

  <!-- === ORTA ROUTES === -->
  <!-- 5. Cenova-Venedik (Kabotaj) -->
  <line x1="250" y1="120" x2="430" y2="120" stroke="#86efac" stroke-width="2.5" stroke-dasharray="6 6" opacity="0.55"/>
  <!-- 6. Cenova-Palermo (Fortuna) -->
  <line x1="250" y1="120" x2="280" y2="240" stroke="#fda4af" stroke-width="2.5" opacity="0.55"/>
  <!-- 8. Palermo-Ragusa (Kabotaj) -->
  <line x1="280" y1="240" x2="470" y2="220" stroke="#86efac" stroke-width="2.5" stroke-dasharray="6 6" opacity="0.55"/>
  <!-- 9. Palermo-Malta (Kabotaj) -->
  <line x1="280" y1="240" x2="340" y2="360" stroke="#86efac" stroke-width="2.5" stroke-dasharray="6 6" opacity="0.55"/>
  <!-- 10. Palermo-Girit (Fortuna) -->
  <line x1="280" y1="240" x2="520" y2="300" stroke="#fda4af" stroke-width="2.5" opacity="0.55"/>

  <!-- === CHOKEPOINT ROUTES (highlighted) === -->
  <!-- 7. Venedik-Ragusa (Tramontana, OTRANTO chokepoint) -->
  <line x1="430" y1="120" x2="470" y2="220" stroke="#ffcc44" stroke-width="5" opacity="0.3" filter="url(#chokeGlow)"/>
  <line x1="430" y1="120" x2="470" y2="220" stroke="#7dd3fc" stroke-width="3.5" opacity="0.8"/>
  <!-- 11. Palermo-Tunus (Tramontana, SICILYA chokepoint) -->
  <line x1="280" y1="240" x2="230" y2="350" stroke="#ffcc44" stroke-width="5" opacity="0.3" filter="url(#chokeGlow)"/>
  <line x1="280" y1="240" x2="230" y2="350" stroke="#7dd3fc" stroke-width="3.5" opacity="0.8"/>
  <!-- 12. Malta-Tunus (Tramontana, SICILYA chokepoint) -->
  <line x1="340" y1="360" x2="230" y2="350" stroke="#ffcc44" stroke-width="5" opacity="0.3" filter="url(#chokeGlow)"/>
  <line x1="340" y1="360" x2="230" y2="350" stroke="#7dd3fc" stroke-width="3.5" opacity="0.8"/>
  <!-- 13. Girit-Istanbul (Tramontana, EGE chokepoint) -->
  <line x1="520" y1="300" x2="660" y2="190" stroke="#ffcc44" stroke-width="5" opacity="0.3" filter="url(#chokeGlow)"/>
  <line x1="520" y1="300" x2="660" y2="190" stroke="#7dd3fc" stroke-width="3.5" opacity="0.8"/>
  <!-- 14. Venedik-Istanbul (Fortuna — open sea alternative) -->
  <line x1="430" y1="120" x2="660" y2="190" stroke="#fda4af" stroke-width="2.5" opacity="0.55"/>

  <!-- === DOGU ROUTES === -->
  <!-- 15. Ragusa-Istanbul (Fortuna) -->
  <line x1="470" y1="220" x2="660" y2="190" stroke="#fda4af" stroke-width="2.5" opacity="0.55"/>
  <!-- 16. Ragusa-Girit (Tramontana) -->
  <line x1="470" y1="220" x2="520" y2="300" stroke="#7dd3fc" stroke-width="2.5" opacity="0.55"/>
  <!-- 17. Girit-Kibris (Tramontana) -->
  <line x1="520" y1="300" x2="660" y2="330" stroke="#7dd3fc" stroke-width="2.5" opacity="0.55"/>
  <!-- 18. Girit-Iskenderiye (Fortuna) -->
  <line x1="520" y1="300" x2="690" y2="430" stroke="#fda4af" stroke-width="2.5" opacity="0.55"/>
  <!-- 19. Kibris-Beyrut (Kabotaj) -->
  <line x1="660" y1="330" x2="760" y2="300" stroke="#86efac" stroke-width="2.5" stroke-dasharray="6 6" opacity="0.55"/>
  <!-- 20. Kibris-Iskenderiye (Tramontana) -->
  <line x1="660" y1="330" x2="690" y2="430" stroke="#7dd3fc" stroke-width="2.5" opacity="0.55"/>
  <!-- 21. Istanbul-Beyrut (Uzun Kabotaj, 3 turns) -->
  <line x1="660" y1="190" x2="760" y2="300" stroke="#c4b5fd" stroke-width="2.5" stroke-dasharray="12 6" opacity="0.55"/>
  <!-- 22. Beyrut-Iskenderiye (Kabotaj) -->
  <line x1="760" y1="300" x2="690" y2="430" stroke="#86efac" stroke-width="2.5" stroke-dasharray="6 6" opacity="0.55"/>

  <!-- === GUNEY ROUTES === -->
  <!-- 23. Iskenderiye-Trablus (Fortuna) -->
  <line x1="690" y1="430" x2="500" y2="430" stroke="#fda4af" stroke-width="2.5" opacity="0.55"/>
  <!-- 24. Trablus-Tunus (Tramontana) -->
  <line x1="500" y1="430" x2="230" y2="350" stroke="#7dd3fc" stroke-width="2.5" opacity="0.55"/>
  <!-- 25. Trablus-Cezayir (Fortuna) -->
  <line x1="500" y1="430" x2="120" y2="400" stroke="#fda4af" stroke-width="2.5" opacity="0.55"/>
  <!-- 26. Tunus-Cezayir (Kabotaj) -->
  <line x1="230" y1="350" x2="120" y2="400" stroke="#86efac" stroke-width="2.5" stroke-dasharray="6 6" opacity="0.55"/>

  <!-- === SPECIAL ROUTES === -->
  <!-- 27. Malta-Girit (Fortuna) -->
  <line x1="340" y1="360" x2="520" y2="300" stroke="#fda4af" stroke-width="2.5" opacity="0.55"/>
  <!-- 28. Cenova-Tunus (Fortuna, shortcut) -->
  <line x1="250" y1="120" x2="230" y2="350" stroke="#fda4af" stroke-width="2" opacity="0.4" stroke-dasharray="2 4"/>
  <!-- 29. Malta-Cezayir (Fortuna) -->
  <line x1="340" y1="360" x2="120" y2="400" stroke="#fda4af" stroke-width="2.5" opacity="0.55"/>

  <!-- ═══ CHOKEPOINT LABELS ═══ -->
  <!-- Sicilya Bogazi -->
  <g transform="translate(238, 298)">
    <rect x="-42" y="-9" width="84" height="18" rx="4" fill="#ffcc44" opacity="0.15"/>
    <text text-anchor="middle" font-family="Georgia, serif" font-size="9" fill="#ffcc44" opacity="0.8" font-weight="bold" letter-spacing="1">SICILYA</text>
  </g>
  <!-- Ege Kapisi -->
  <g transform="translate(600, 240)">
    <rect x="-26" y="-9" width="52" height="18" rx="4" fill="#ffcc44" opacity="0.15"/>
    <text text-anchor="middle" font-family="Georgia, serif" font-size="9" fill="#ffcc44" opacity="0.8" font-weight="bold" letter-spacing="1">EGE</text>
  </g>
  <!-- Otranto Bogazi -->
  <g transform="translate(460, 165)">
    <rect x="-36" y="-9" width="72" height="18" rx="4" fill="#ffcc44" opacity="0.15"/>
    <text text-anchor="middle" font-family="Georgia, serif" font-size="9" fill="#ffcc44" opacity="0.8" font-weight="bold" letter-spacing="1">OTRANTO</text>
  </g>

  <!-- ═══ PORT NODES ═══ -->

  <!-- Barselona (Bati, savas) -->
  <g>
    <circle cx="90" cy="220" r="13" fill="#0f172a" stroke="#e74c3c" stroke-width="2.5"/>
    <circle cx="90" cy="220" r="6" fill="#e74c3c" opacity="0.4"/>
    <text x="90" y="248" text-anchor="middle" font-family="Georgia, serif" font-size="11" fill="#e2e8f0" font-weight="bold">Barselona</text>
    <text x="90" y="260" text-anchor="middle" font-family="Georgia, serif" font-size="8" fill="#e74c3c" opacity="0.7">⚔ Aragon</text>
  </g>

  <!-- Marsilya (Bati, yemek) -->
  <g>
    <circle cx="130" cy="120" r="12" fill="#0f172a" stroke="#3498db" stroke-width="2.5"/>
    <circle cx="130" cy="120" r="5" fill="#3498db" opacity="0.4"/>
    <text x="130" y="105" text-anchor="middle" font-family="Georgia, serif" font-size="11" fill="#e2e8f0" font-weight="bold">Marsilya</text>
    <text x="130" y="93" text-anchor="middle" font-family="Georgia, serif" font-size="8" fill="#3498db" opacity="0.7">🍷 Fransa</text>
  </g>

  <!-- Cenova (Bati, luks) -->
  <g>
    <circle cx="250" cy="120" r="12" fill="#0f172a" stroke="#f1c40f" stroke-width="2.5"/>
    <circle cx="250" cy="120" r="5" fill="#f1c40f" opacity="0.4"/>
    <text x="250" y="105" text-anchor="middle" font-family="Georgia, serif" font-size="11" fill="#e2e8f0" font-weight="bold">Cenova</text>
    <text x="250" y="93" text-anchor="middle" font-family="Georgia, serif" font-size="8" fill="#f1c40f" opacity="0.7">🏦 Banka</text>
  </g>

  <!-- Venedik (Orta, luks) -->
  <g>
    <circle cx="430" cy="120" r="15" fill="#0f172a" stroke="#f1c40f" stroke-width="3"/>
    <circle cx="430" cy="120" r="7" fill="#f1c40f" opacity="0.4"/>
    <text x="430" y="103" text-anchor="middle" font-family="Georgia, serif" font-size="12" fill="#e2e8f0" font-weight="bold">Venedik</text>
    <text x="430" y="90" text-anchor="middle" font-family="Georgia, serif" font-size="8" fill="#f1c40f" opacity="0.7">✨ La Serenissima</text>
  </g>

  <!-- Palermo (Orta, yemek) -->
  <g>
    <circle cx="280" cy="240" r="12" fill="#0f172a" stroke="#2ecc71" stroke-width="2.5"/>
    <circle cx="280" cy="240" r="5" fill="#2ecc71" opacity="0.4"/>
    <text x="280" y="225" text-anchor="middle" font-family="Georgia, serif" font-size="11" fill="#e2e8f0" font-weight="bold">Palermo</text>
    <text x="280" y="213" text-anchor="middle" font-family="Georgia, serif" font-size="8" fill="#2ecc71" opacity="0.7">🌾 Sicilya</text>
  </g>

  <!-- Ragusa (Orta, notr) -->
  <g>
    <circle cx="470" cy="220" r="11" fill="#0f172a" stroke="#9b59b6" stroke-width="2.5"/>
    <circle cx="470" cy="220" r="5" fill="#9b59b6" opacity="0.4"/>
    <text x="486" y="210" font-family="Georgia, serif" font-size="11" fill="#e2e8f0" font-weight="bold">Ragusa</text>
    <text x="486" y="222" font-family="Georgia, serif" font-size="8" fill="#9b59b6" opacity="0.7">🕊 Notr</text>
  </g>

  <!-- Istanbul (Dogu, luks) — MEGA PORT -->
  <g>
    <circle cx="660" cy="190" r="17" fill="#0f172a" stroke="#e67e22" stroke-width="3"/>
    <circle cx="660" cy="190" r="8" fill="#e67e22" opacity="0.35"/>
    <circle cx="660" cy="190" r="22" fill="none" stroke="#e67e22" stroke-width="1" opacity="0.2">
      <animate attributeName="r" values="20;26;20" dur="3s" repeatCount="indefinite"/>
      <animate attributeName="opacity" values="0.2;0.08;0.2" dur="3s" repeatCount="indefinite"/>
    </circle>
    <text x="660" y="173" text-anchor="middle" font-family="Georgia, serif" font-size="13" fill="#e2e8f0" font-weight="bold">Istanbul</text>
    <text x="660" y="160" text-anchor="middle" font-family="Georgia, serif" font-size="8" fill="#e67e22" opacity="0.7">👑 Dunyanin Esigi</text>
  </g>

  <!-- Girit (Dogu, yemek) -->
  <g>
    <circle cx="520" cy="300" r="12" fill="#0f172a" stroke="#1abc9c" stroke-width="2.5"/>
    <circle cx="520" cy="300" r="5" fill="#1abc9c" opacity="0.4"/>
    <text x="520" y="320" text-anchor="middle" font-family="Georgia, serif" font-size="11" fill="#e2e8f0" font-weight="bold">Girit</text>
    <text x="520" y="332" text-anchor="middle" font-family="Georgia, serif" font-size="8" fill="#1abc9c" opacity="0.7">🏝 Kavsak</text>
  </g>

  <!-- Kibris (Dogu, yemek) -->
  <g>
    <circle cx="660" cy="330" r="11" fill="#0f172a" stroke="#1abc9c" stroke-width="2.5"/>
    <circle cx="660" cy="330" r="5" fill="#1abc9c" opacity="0.4"/>
    <text x="660" y="350" text-anchor="middle" font-family="Georgia, serif" font-size="11" fill="#e2e8f0" font-weight="bold">Kibris</text>
    <text x="660" y="362" text-anchor="middle" font-family="Georgia, serif" font-size="8" fill="#1abc9c" opacity="0.7">⛪ Hacli Mirasi</text>
  </g>

  <!-- Beyrut (Dogu, luks) -->
  <g>
    <circle cx="760" cy="300" r="12" fill="#0f172a" stroke="#f1c40f" stroke-width="2.5"/>
    <circle cx="760" cy="300" r="5" fill="#f1c40f" opacity="0.4"/>
    <text x="776" y="290" font-family="Georgia, serif" font-size="11" fill="#e2e8f0" font-weight="bold">Beyrut</text>
    <text x="776" y="302" font-family="Georgia, serif" font-size="8" fill="#f1c40f" opacity="0.7">🐪 Ipek Yolu</text>
  </g>

  <!-- Iskenderiye (Guney, luks) — Major trade hub -->
  <g>
    <circle cx="690" cy="430" r="15" fill="#0f172a" stroke="#f39c12" stroke-width="3"/>
    <circle cx="690" cy="430" r="7" fill="#f39c12" opacity="0.35"/>
    <circle cx="690" cy="430" r="20" fill="none" stroke="#f39c12" stroke-width="1" opacity="0.15">
      <animate attributeName="r" values="18;23;18" dur="3s" repeatCount="indefinite"/>
    </circle>
    <text x="690" y="455" text-anchor="middle" font-family="Georgia, serif" font-size="12" fill="#e2e8f0" font-weight="bold">Iskenderiye</text>
    <text x="690" y="467" text-anchor="middle" font-family="Georgia, serif" font-size="8" fill="#f39c12" opacity="0.7">🌶 Baharat Tahti</text>
  </g>

  <!-- Trablus (Guney, luks) -->
  <g>
    <circle cx="500" cy="430" r="11" fill="#0f172a" stroke="#f39c12" stroke-width="2.5"/>
    <circle cx="500" cy="430" r="5" fill="#f39c12" opacity="0.4"/>
    <text x="500" y="453" text-anchor="middle" font-family="Georgia, serif" font-size="11" fill="#e2e8f0" font-weight="bold">Trablus</text>
    <text x="500" y="465" text-anchor="middle" font-family="Georgia, serif" font-size="8" fill="#f39c12" opacity="0.7">🏜 Col Kapisi</text>
  </g>

  <!-- Tunus (Guney, yemek) -->
  <g>
    <circle cx="230" cy="350" r="12" fill="#0f172a" stroke="#2ecc71" stroke-width="2.5"/>
    <circle cx="230" cy="350" r="5" fill="#2ecc71" opacity="0.4"/>
    <text x="200" y="340" text-anchor="end" font-family="Georgia, serif" font-size="11" fill="#e2e8f0" font-weight="bold">Tunus</text>
    <text x="200" y="352" text-anchor="end" font-family="Georgia, serif" font-size="8" fill="#2ecc71" opacity="0.7">Afrika'nin Romasi</text>
  </g>

  <!-- Cezayir (Guney, savas) -->
  <g>
    <circle cx="120" cy="400" r="12" fill="#0f172a" stroke="#e74c3c" stroke-width="2.5"/>
    <circle cx="120" cy="400" r="5" fill="#e74c3c" opacity="0.4"/>
    <text x="120" y="420" text-anchor="middle" font-family="Georgia, serif" font-size="11" fill="#e2e8f0" font-weight="bold">Cezayir</text>
    <text x="120" y="432" text-anchor="middle" font-family="Georgia, serif" font-size="8" fill="#e74c3c" opacity="0.7">🏴‍☠ Korsanlar</text>
  </g>

  <!-- Malta (Orta, savas) -->
  <g>
    <circle cx="340" cy="360" r="11" fill="#0f172a" stroke="#e74c3c" stroke-width="2.5"/>
    <circle cx="340" cy="360" r="5" fill="#e74c3c" opacity="0.4"/>
    <text x="356" y="356" font-family="Georgia, serif" font-size="11" fill="#e2e8f0" font-weight="bold">Malta</text>
    <text x="356" y="368" font-family="Georgia, serif" font-size="8" fill="#e74c3c" opacity="0.7">⚓ Sovalyeler</text>
  </g>

  <!-- ═══ LEGEND ═══ -->
  <g transform="translate(20, 15)">
    <rect x="0" y="0" width="190" height="122" rx="6" fill="#0a1628" stroke="#2a3a4a" stroke-width="1" opacity="0.9"/>
    <text x="12" y="20" font-family="Georgia, serif" font-size="12" fill="#c8a96e" font-weight="bold" letter-spacing="1">MARE NOSTRUM</text>
    <text x="12" y="33" font-family="Georgia, serif" font-size="8" fill="#8899aa" font-style="italic">Akdeniz Ticaret Haritasi</text>

    <!-- Route types -->
    <line x1="12" y1="48" x2="40" y2="48" stroke="#7dd3fc" stroke-width="2.5"/>
    <text x="46" y="52" font-family="monospace" font-size="9" fill="#7dd3fc">Tramontana (1 tur)</text>

    <line x1="12" y1="63" x2="40" y2="63" stroke="#86efac" stroke-width="2.5" stroke-dasharray="6 6"/>
    <text x="46" y="67" font-family="monospace" font-size="9" fill="#86efac">Kabotaj (2 tur)</text>

    <line x1="12" y1="78" x2="40" y2="78" stroke="#fda4af" stroke-width="2.5"/>
    <text x="46" y="82" font-family="monospace" font-size="9" fill="#fda4af">Fortuna (1 tur, riskli)</text>

    <line x1="12" y1="93" x2="40" y2="93" stroke="#c4b5fd" stroke-width="2.5" stroke-dasharray="12 6"/>
    <text x="46" y="97" font-family="monospace" font-size="9" fill="#c4b5fd">Uzun Kabotaj (3 tur)</text>

    <!-- Chokepoint indicator -->
    <line x1="12" y1="110" x2="40" y2="110" stroke="#ffcc44" stroke-width="3.5"/>
    <text x="46" y="114" font-family="monospace" font-size="9" fill="#ffcc44">Darbogaz (%70-80)</text>
  </g>

  <!-- ═══ GOOD CATEGORY LEGEND ═══ -->
  <g transform="translate(660, 15)">
    <rect x="0" y="0" width="180" height="82" rx="6" fill="#0a1628" stroke="#2a3a4a" stroke-width="1" opacity="0.9"/>
    <text x="12" y="20" font-family="Georgia, serif" font-size="11" fill="#c8a96e" font-weight="bold" letter-spacing="1">MAL TURLERI</text>

    <circle cx="20" cy="38" r="5" fill="#0f172a" stroke="#f1c40f" stroke-width="2"/>
    <text x="32" y="42" font-family="monospace" font-size="9" fill="#f1c40f">Luks (ipek, baharat, cam)</text>

    <circle cx="20" cy="55" r="5" fill="#0f172a" stroke="#2ecc71" stroke-width="2"/>
    <text x="32" y="59" font-family="monospace" font-size="9" fill="#2ecc71">Yemek (bugday, zeytinyagi)</text>

    <circle cx="20" cy="72" r="5" fill="#0f172a" stroke="#e74c3c" stroke-width="2"/>
    <text x="32" y="76" font-family="monospace" font-size="9" fill="#e74c3c">Savas (demir, silah, celik)</text>
  </g>

  <!-- ═══ COMPASS ROSE ═══ -->
  <g transform="translate(800, 470)" opacity="0.4">
    <circle cx="0" cy="0" r="20" fill="none" stroke="#c8a96e" stroke-width="0.5"/>
    <!-- N -->
    <line x1="0" y1="-18" x2="0" y2="-8" stroke="#c8a96e" stroke-width="1.5"/>
    <polygon points="0,-20 -3,-14 3,-14" fill="#c8a96e"/>
    <text x="0" y="-22" text-anchor="middle" font-family="Georgia, serif" font-size="8" fill="#c8a96e" font-weight="bold">K</text>
    <!-- S -->
    <line x1="0" y1="18" x2="0" y2="8" stroke="#c8a96e" stroke-width="0.8"/>
    <!-- E -->
    <line x1="18" y1="0" x2="8" y2="0" stroke="#c8a96e" stroke-width="0.8"/>
    <!-- W -->
    <line x1="-18" y1="0" x2="-8" y2="0" stroke="#c8a96e" stroke-width="0.8"/>
    <!-- Diagonals -->
    <line x1="12" y1="-12" x2="6" y2="-6" stroke="#c8a96e" stroke-width="0.4"/>
    <line x1="-12" y1="-12" x2="-6" y2="-6" stroke="#c8a96e" stroke-width="0.4"/>
    <line x1="12" y1="12" x2="6" y2="6" stroke="#c8a96e" stroke-width="0.4"/>
    <line x1="-12" y1="12" x2="-6" y2="6" stroke="#c8a96e" stroke-width="0.4"/>
  </g>

  <!-- ═══ TRADE FLOW ARROWS (subtle) ═══ -->
  <!-- East→West luxury flow -->
  <path d="M 700,420 Q 600,380 520,310 Q 440,260 350,200 Q 280,160 200,130"
        fill="none" stroke="#f1c40f" stroke-width="1" opacity="0.15" stroke-dasharray="3 6"
        marker-end="url(#arrowEnd)"/>
  <text x="390" y="195" font-family="Georgia, serif" font-size="7" fill="#f1c40f" opacity="0.3" font-style="italic" transform="rotate(-15 390 195)">Luks akisi →</text>

  <!-- West→East war goods flow -->
  <path d="M 120,230 Q 200,270 280,290 Q 400,320 550,300 Q 620,280 680,240"
        fill="none" stroke="#e74c3c" stroke-width="1" opacity="0.12" stroke-dasharray="3 6"
        marker-end="url(#arrowEnd)"/>
  <text x="400" y="315" font-family="Georgia, serif" font-size="7" fill="#e74c3c" opacity="0.25" font-style="italic" transform="rotate(5 400 315)">← Savas akisi</text>

  <!-- ═══ STATS BAR ═══ -->
  <g transform="translate(225, 497)">
    <text font-family="Georgia, serif" font-size="9" fill="#5a6a7a" font-style="italic">
      15 Liman · 29 Rota · 3 Darbogaz · 4 Bolge · 15 Mal · 11.–18. Yuzyil
    </text>
  </g>
</svg>
